<svg xmlns="http://www.w3.org/2000/svg" viewBox="0 0 19 24">
  <path d="M6.274 19.345c.682-.626 1.112-1.4 1.474-2.193l.203.209.92.946.18.184.18-.184.02-.022 1.11-1.14c.347.79.775 1.541 1.444 2.164a.221.221 0 0 1 .028.034.234.234 0 0 1-.014.032v.001c-.748 1.507-1.732 2.884-2.781 4.221-1.049-1.333-1.99-2.744-2.764-4.252Zm5.562.004Zm-5.132-3.046c-.413 1.263-1.281 2.338-2.456 2.935-.94-1.23-1.298-2.82-1.224-4.38v-.001c.003-.073.005-.117.008-.148a2.51 2.51 0 0 1 .128-.047c.722-.233 1.337-.625 1.896-1.09.092.179.21.361.336.54.144.205.309.42.47.63.073.096.146.191.215.284.227.302.422.58.541.816.129.256.124.379.1.427l-.008.017-.006.017Zm4.669.002-.006-.02-.01-.018c-.009-.018-.02-.056-.006-.13.013-.076.048-.173.107-.291.12-.238.315-.517.542-.82l.22-.293c.16-.209.322-.422.464-.625.128-.181.248-.366.341-.546.56.461 1.178.854 1.889 1.1l.009.002c.06.018.096.03.121.04.003.032.005.077.008.153v.002c.075 1.56-.283 3.15-1.223 4.379-1.188-.597-2.056-1.672-2.456-2.933Zm5.576-2.528v.002c-2.264-.021-4.13-1.745-4.916-3.82-.007-.155.081-.331.258-.571.045-.06.091-.12.14-.182l.003-.004c.047-.06.096-.124.143-.188a3.16 3.16 0 0 0 .138-.2c1.085.47 2.214.809 3.446.721l.103-.003c.013.02.028.048.053.093l.005.01a6.38 6.38 0 0 1 .627 4.142Zm-7.628-.943c.61-.578 1.22-1.174 1.758-1.833.04.07.083.14.127.207.095.146.201.295.304.438l.095.133c.133.187.25.36.333.52.072.138.11.25.12.341-.59 1.347-1.565 2.428-2.568 3.54l-.445.495c-1.183-1.253-2.292-2.541-3.015-4.082l-.006-.014-.003-.004a.203.203 0 0 1 .018-.028c.403-.483.694-1.032.969-1.559.06.066.13.143.205.228l.25.285c.144.165.298.34.448.507.242.27.488.531.688.705.096.083.2.163.3.207a.402.402 0 0 0 .212.037.307.307 0 0 0 .21-.123Zm-8.157.945c-.29-1.413.013-2.9.658-4.203a.139.139 0 0 1 .026-.04h.002a.124.124 0 0 1 .033-.001c1.24.113 2.408-.238 3.499-.7.05.074.104.144.157.21l.11.134c.065.079.126.153.186.234.177.237.256.424.215.616-.81 2.04-2.663 3.75-4.886 3.75Zm10.3-5.263c-.422.59-1.133 1.493-2.41 2.823a27.793 27.793 0 0 1-3.051-4.027l-.13-.207-.21.125c-1.64.984-3.707 1.499-5.347.516C1.754 4.627 5.001 2.601 8.421 2.48l.209-.008.03-.207c.024-.173-.002-.402-.026-.608l-.007-.06c-.025-.202-.049-.406-.052-.6-.003-.217.022-.39.083-.512.052-.106.136-.186.3-.221.221-.04.323.02.387.094.082.096.14.266.169.506.027.233.021.494.008.74l-.013.211c-.01.158-.02.306-.018.408l.006.23.23.014c1.503.086 3.16.67 4.641 1.59 1.48.922 2.767 2.168 3.541 3.561l.01.018.012.016.002.002a.277.277 0 0 1-.052.057c-.106.093-.31.197-.585.291-.543.186-1.238.292-1.645.256-1.351-.192-2.076-.444-2.489-.621a6.862 6.862 0 0 1-.264-.121l-.024-.011a3.506 3.506 0 0 0-.176-.081.636.636 0 0 0-.213-.053.407.407 0 0 0-.252.073.709.709 0 0 0-.16.163 3.671 3.671 0 0 0-.18.27c-.102.159-.235.366-.43.64Z" fill="currentColor" stroke="#382E2D" stroke-width=".5"/>
</svg>
