<svg xmlns="http://www.w3.org/2000/svg" viewBox="0 0 179 23">
  <path d="M17.983 21.302h2.81l2.913-14.777 4.395 15.369h.591l4.975-15.39 2.275 14.798h4.673L37.362.592H33.19L29.847 12.34 26.77.592h-7.076l3.125 2.659-4.835 18.05Z" fill="currentColor"/>
  <path fill-rule="evenodd" clip-rule="evenodd" d="m11.965.591 2.148 2.655L12.44 13.58c-.564 3.4-2.072 5.828-3.789 5.828-1.035 0-1.744-.711-1.744-1.835 0-1.39 1.123-1.953 2.632-1.953h1.51l.324-.56L6.996.59 0 .586l2.785 2.66 4.595 11.07c-2.594.201-4.201 1.667-4.201 3.641 0 2.545 1.746 3.936 4.32 3.936 3.223 0 5.382-2.219 6.744-6.747L18.426.591h-6.461Z" fill="currentColor"/>
  <path d="m43.988 21.302 1.44-4.853h6.244l1.458 4.853h4.823L51.533.592h-7.67l3.665 2.659-6.35 18.05h2.81Zm4.543-15.307 2.52 8.383h-5.008l2.488-8.383ZM70.528 9.71H64.61V.593h-7.272l2.686 2.659V21.3h4.586v-9.4h5.918v9.4h4.585V.592h-4.585v9.12ZM87.862 7.457c-1.491 0-2.732.173-3.726.47V.592h-7.271L79.55 3.25v11.364c0 4.32 2.958 7.279 7.279 7.279 4.289 0 7.246-2.528 7.246-7.598 0-4.003-2.513-6.839-6.214-6.839Zm-1.248 12.424c-1.54 0-2.478-1.184-2.478-2.84v-7.3c.704-.239 1.169-.349 2.167-.349 2.24 0 3.188 1.701 3.188 4.797 0 4.27-1.043 5.692-2.877 5.692ZM97.543 21.929l1.263-.312-.295-1.066h4.479v-1.534h-5.935v1.186l.488 1.726ZM98.404 10.775V7.91l4.585 2.731V8.905l-4.663-2.666h-1.229v4.536h1.307ZM100.464.36a1.41 1.41 0 0 0-.3.316c-.086.123-.164.26-.231.413a1.902 1.902 0 0 0-.496-.578c-.203-.153-.464-.232-.784-.232h-.016c-.236 0-.454.054-.653.16-.198.107-.373.26-.521.455a2.19 2.19 0 0 0-.346.704c-.08.272-.122.572-.122.904 0 .33.041.632.122.905.081.273.197.507.346.703a1.6 1.6 0 0 0 .521.454c.2.106.417.16.653.16h.016c.32 0 .58-.076.784-.232.2-.153.366-.345.496-.575.135.32.315.567.539.744.224.177.516.265.875.265h.017c.257 0 .492-.06.703-.181.21-.12.391-.287.542-.5.152-.213.271-.47.355-.766.084-.297.125-.623.125-.977 0-.352-.041-.679-.122-.975a2.415 2.415 0 0 0-.349-.767 1.643 1.643 0 0 0-.547-.5 1.42 1.42 0 0 0-.715-.182h-.018a1.352 1.352 0 0 0-.874.282Zm-1.645 2.927a.63.63 0 0 1-.466-.209c-.134-.14-.2-.333-.2-.576 0-.245.07-.437.206-.576a.64.64 0 0 1 .47-.21h.02c.199 0 .365.07.496.215.132.143.197.333.197.571 0 .237-.067.427-.2.571a.665.665 0 0 1-.504.214h-.019Zm2.385-1.711a.66.66 0 0 1 .51.238c.143.158.215.387.215.688 0 .299-.072.53-.215.688a.669.669 0 0 1-.51.24h-.019a.606.606 0 0 1-.505-.257c-.129-.172-.192-.394-.192-.67s.063-.501.192-.672a.599.599 0 0 1 .505-.255h.019ZM100.464 12.514a1.409 1.409 0 0 0-.3.316 2.42 2.42 0 0 0-.23.413 1.905 1.905 0 0 0-.496-.578c-.204-.153-.464-.231-.785-.231h-.015c-.237 0-.455.053-.654.16-.198.107-.373.258-.521.454-.15.198-.264.43-.345.704-.081.272-.122.572-.122.904 0 .33.04.633.122.905.08.273.196.508.345.703a1.6 1.6 0 0 0 .521.454c.2.106.417.16.654.16h.015c.32 0 .58-.076.784-.232.201-.153.366-.345.496-.575.135.32.315.567.539.744.224.177.516.265.875.265h.017c.258 0 .492-.06.703-.18.21-.121.392-.288.542-.502a2.43 2.43 0 0 0 .355-.765c.084-.297.126-.623.126-.977 0-.352-.042-.679-.123-.975a2.392 2.392 0 0 0-.349-.767 1.642 1.642 0 0 0-.547-.5 1.42 1.42 0 0 0-.715-.182h-.017a1.49 1.49 0 0 0-.493.075 1.364 1.364 0 0 0-.382.207Zm-1.644 2.928a.63.63 0 0 1-.466-.21c-.135-.14-.2-.333-.2-.576 0-.245.069-.437.205-.576a.641.641 0 0 1 .47-.21h.02c.2 0 .366.07.497.215.131.143.196.333.196.571 0 .237-.067.428-.2.572a.666.666 0 0 1-.504.214h-.018Zm2.384-1.712c.197 0 .366.077.51.238.143.159.216.387.216.688 0 .3-.073.53-.216.688a.666.666 0 0 1-.51.24h-.019a.608.608 0 0 1-.505-.257c-.128-.172-.192-.394-.192-.67s.064-.5.192-.671a.6.6 0 0 1 .505-.256h.019ZM171.289 0c-6.28 0-7.712 3.945-7.712 10.947 0 7.002 1.432 10.947 7.712 10.947 6.28 0 7.711-3.945 7.711-10.947C179 3.945 177.569 0 171.289 0Zm0 19.896c-2.555 0-2.968-1.678-2.968-8.949 0-7.27.413-8.949 2.968-8.949s2.967 1.679 2.967 8.95c0 7.27-.412 8.948-2.967 8.948ZM105.162.705l2.67 2.382v18.214h4.561V2.765h5.59V21.3h4.559V.705h-17.38ZM142.58 21.301V.705h-3.355l-7.414 11.286V.705h-7.231l2.672 2.382v18.92h.587l10.18-16.676v15.97h4.561ZM155.018 8.193l6.422-6.899V.705h-17.115l2.67 2.382v11.564c0 4.297 3.001 7.239 7.384 7.239 4.384 0 7.061-2.9 7.061-7.394 0-4.292-2.643-6.83-6.422-6.303Zm-.999 11.695c-1.62 0-2.463-1.177-2.463-2.824v-14.3h4.772l-3.773 6.415v.588c2.942-.412 4.325.462 4.325 4.505 0 4.518-1.243 5.616-2.861 5.616Z" fill="currentColor"/>
</svg>
